<svg width="229" height="309" viewBox="0 0 229 309" fill="none" xmlns="http://www.w3.org/2000/svg">
<g filter="url(#filter0_i_480_440)">
<rect y="28.9576" width="229" height="280" rx="16" fill="#4285F3"/>
</g>
<g filter="url(#filter1_d_480_440)">
<rect x="13" y="42.8642" width="191" height="245" transform="rotate(-2.97311 13 42.8642)" fill="#D9D9D9"/>
</g>
<g filter="url(#filter2_d_480_440)">
<rect x="20.4355" y="36.746" width="191" height="245" transform="rotate(0.282953 20.4355 36.746)" fill="white"/>
</g>
<circle cx="57.0007" cy="96.96" r="15" transform="rotate(0.28 57.0007 96.96)" fill="#34A853"/>
<path d="M63.7585 91.943L54.455 101.156L50.2673 96.9271" stroke="white" stroke-width="4" stroke-linecap="round" stroke-linejoin="round"/>
<circle cx="56.9998" cy="159.958" r="15" transform="rotate(0.28 56.9998 159.958)" fill="#34A853"/>
<path d="M63.7333 154.908L54.4749 164.166L50.2666 159.958" stroke="white" stroke-width="4" stroke-linecap="round" stroke-linejoin="round"/>
<circle cx="56.9998" cy="222.958" r="15" transform="rotate(0.28 56.9998 222.958)" fill="#34A853"/>
<path d="M63.7333 217.908L54.4749 227.166L50.2666 222.958" stroke="white" stroke-width="4" stroke-linecap="round" stroke-linejoin="round"/>
<g filter="url(#filter3_d_480_440)">
<path fill-rule="evenodd" clip-rule="evenodd" d="M110.189 0.962299C113.268 -0.320522 116.732 -0.320522 119.811 0.962299L120.713 1.33828C124.654 2.98056 127.551 6.43762 128.478 10.6059C129.367 14.6091 132.918 17.4573 137.019 17.4574H157.75C165.62 17.4574 172 23.8375 172 31.7074C172 39.5775 165.62 45.9574 157.75 45.9574H71.25C63.3799 45.9574 57 39.5775 57 31.7074C57.0002 23.8375 63.3801 17.4574 71.25 17.4574H92.9814C97.0823 17.4573 100.633 14.6091 101.522 10.6059C102.449 6.43762 105.346 2.98056 109.287 1.33828L110.189 0.962299ZM115 2.95839C109.477 2.95839 105 7.43555 105 12.9584C105 18.4811 109.477 22.9584 115 22.9584C120.523 22.9584 125 18.4811 125 12.9584C125 7.43555 120.523 2.95839 115 2.95839Z" fill="#D9D9D9"/>
</g>
<rect x="83.0293" y="85.9576" width="110" height="6" transform="rotate(0.28 83.0293 85.9576)" fill="#D9D9D9"/>
<rect x="83.0293" y="148.958" width="110" height="6" transform="rotate(0.28 83.0293 148.958)" fill="#D9D9D9"/>
<rect x="83.0293" y="211.958" width="110" height="6" transform="rotate(0.28 83.0293 211.958)" fill="#D9D9D9"/>
<rect x="83.0293" y="95.0969" width="53" height="6" transform="rotate(0.28 83.0293 95.0969)" fill="#D9D9D9"/>
<rect x="83.0293" y="158.097" width="53" height="6" transform="rotate(0.28 83.0293 158.097)" fill="#D9D9D9"/>
<rect x="83.0293" y="221.097" width="53" height="6" transform="rotate(0.28 83.0293 221.097)" fill="#D9D9D9"/>
<defs>
<filter id="filter0_i_480_440" x="0" y="24.9576" width="229" height="284" filterUnits="userSpaceOnUse" color-interpolation-filters="sRGB">
<feFlood flood-opacity="0" result="BackgroundImageFix"/>
<feBlend mode="normal" in="SourceGraphic" in2="BackgroundImageFix" result="shape"/>
<feColorMatrix in="SourceAlpha" type="matrix" values="0 0 0 0 0 0 0 0 0 0 0 0 0 0 0 0 0 0 127 0" result="hardAlpha"/>
<feOffset dy="-8"/>
<feGaussianBlur stdDeviation="2"/>
<feComposite in2="hardAlpha" operator="arithmetic" k2="-1" k3="1"/>
<feColorMatrix type="matrix" values="0 0 0 0 0 0 0 0 0 0 0 0 0 0 0 0 0 0 0.25 0"/>
<feBlend mode="normal" in2="shape" result="effect1_innerShadow_480_440"/>
</filter>
<filter id="filter1_d_480_440" x="9" y="32.9575" width="211.45" height="262.577" filterUnits="userSpaceOnUse" color-interpolation-filters="sRGB">
<feFlood flood-opacity="0" result="BackgroundImageFix"/>
<feColorMatrix in="SourceAlpha" type="matrix" values="0 0 0 0 0 0 0 0 0 0 0 0 0 0 0 0 0 0 127 0" result="hardAlpha"/>
<feOffset dy="4"/>
<feGaussianBlur stdDeviation="2"/>
<feComposite in2="hardAlpha" operator="out"/>
<feColorMatrix type="matrix" values="0 0 0 0 0 0 0 0 0 0 0 0 0 0 0 0 0 0 0.25 0"/>
<feBlend mode="normal" in2="BackgroundImageFix" result="effect1_dropShadow_480_440"/>
<feBlend mode="normal" in="SourceGraphic" in2="effect1_dropShadow_480_440" result="shape"/>
</filter>
<filter id="filter2_d_480_440" x="15.2256" y="36.746" width="200.208" height="253.94" filterUnits="userSpaceOnUse" color-interpolation-filters="sRGB">
<feFlood flood-opacity="0" result="BackgroundImageFix"/>
<feColorMatrix in="SourceAlpha" type="matrix" values="0 0 0 0 0 0 0 0 0 0 0 0 0 0 0 0 0 0 127 0" result="hardAlpha"/>
<feOffset dy="4"/>
<feGaussianBlur stdDeviation="2"/>
<feComposite in2="hardAlpha" operator="out"/>
<feColorMatrix type="matrix" values="0 0 0 0 0 0 0 0 0 0 0 0 0 0 0 0 0 0 0.25 0"/>
<feBlend mode="normal" in2="BackgroundImageFix" result="effect1_dropShadow_480_440"/>
<feBlend mode="normal" in="SourceGraphic" in2="effect1_dropShadow_480_440" result="shape"/>
</filter>
<filter id="filter3_d_480_440" x="53" y="0.000183105" width="123" height="53.9572" filterUnits="userSpaceOnUse" color-interpolation-filters="sRGB">
<feFlood flood-opacity="0" result="BackgroundImageFix"/>
<feColorMatrix in="SourceAlpha" type="matrix" values="0 0 0 0 0 0 0 0 0 0 0 0 0 0 0 0 0 0 127 0" result="hardAlpha"/>
<feOffset dy="4"/>
<feGaussianBlur stdDeviation="2"/>
<feComposite in2="hardAlpha" operator="out"/>
<feColorMatrix type="matrix" values="0 0 0 0 0 0 0 0 0 0 0 0 0 0 0 0 0 0 0.25 0"/>
<feBlend mode="normal" in2="BackgroundImageFix" result="effect1_dropShadow_480_440"/>
<feBlend mode="normal" in="SourceGraphic" in2="effect1_dropShadow_480_440" result="shape"/>
</filter>
</defs>
</svg>
