<svg width="30" height="30" viewBox="0 0 30 30" fill="none" xmlns="http://www.w3.org/2000/svg">
<path fill-rule="evenodd" clip-rule="evenodd" d="M22.2793 0.252441H7.45588C3.37982 0.252441 0.0441895 3.51385 0.0441895 7.50244V22.0024C0.0441895 25.9896 3.37982 29.2524 7.45588 29.2524H22.2793C26.3553 29.2524 29.6909 25.9896 29.6909 22.0024V7.50244C29.6909 3.51385 26.3553 0.252441 22.2793 0.252441ZM14.8723 20.794C11.4607 20.794 8.69572 18.0883 8.69572 14.7526C8.69572 11.4154 11.4607 8.7108 14.8723 8.7108C18.2824 8.7108 21.0488 11.4154 21.0488 14.7526C21.0488 18.0883 18.2824 20.794 14.8723 20.794ZM21.0475 6.8983C21.0475 7.89916 21.8761 8.7108 22.9004 8.7108C23.9247 8.7108 24.7534 7.89916 24.7534 6.8983C24.7534 5.89744 23.9247 5.0858 22.9004 5.0858C21.8761 5.0858 21.0475 5.89744 21.0475 6.8983Z" fill="white" fill-opacity="0.46"/>
</svg>
