<svg width="33" height="27" viewBox="0 0 33 27" fill="none" xmlns="http://www.w3.org/2000/svg">
<path d="M29.5015 7.30402C29.5229 7.58596 29.5229 7.8663 29.5229 8.14663C29.5229 16.7258 22.8779 26.6116 10.734 26.6116C6.9926 26.6116 3.51682 25.5466 0.591919 23.6971C1.12312 23.7567 1.63465 23.7776 2.18717 23.7776C5.27438 23.7776 8.11567 22.753 10.3864 21.0049C7.48281 20.9453 5.04977 19.0764 4.21034 16.5051C4.61858 16.5647 5.02846 16.605 5.45801 16.605C6.04988 16.605 6.64502 16.5244 7.19754 16.3842C4.16935 15.7817 1.90189 13.1701 1.90189 10.0155V9.93496C2.78232 10.4167 3.80374 10.718 4.88582 10.7582C3.10694 9.59502 1.94124 7.6053 1.94124 5.35457C1.94124 4.14946 2.26751 3.04424 2.8397 2.0808C6.09086 6.01674 10.9783 8.58969 16.4575 8.87163C16.3559 8.3883 16.2936 7.88724 16.2936 7.38457C16.2936 3.80791 19.2382 0.89502 22.8976 0.89502C24.7994 0.89502 26.516 1.67802 27.7227 2.94435C29.2146 2.66241 30.6443 2.11946 31.9133 1.37674C31.4231 2.88313 30.3787 4.14946 29.0097 4.95341C30.3393 4.81163 31.628 4.45074 32.8117 3.94807C31.9133 5.23374 30.7902 6.37924 29.5015 7.30402Z" fill="white" fill-opacity="0.46"/>
</svg>
